# AST/ASF file generated using VICON BodyLanguage
# -----------------------------------------------
:version 1.10
:name VICON
:units
  mass 1.0
  length 0.45
  angle deg
:documentation
   .ast/.asf automatically generated from VICON data using
   VICON BodyBuilder and BodyLanguage model FoxedUp or BRILLIANT.MOD
:root
   order TX TY TZ RX RY RZ
   axis XYZ
   position 0 0 0  
   orientation 0 0 0 
:bonedata
  begin
     id 1 
     name lhipjoint
     direction 0.606768 -0.715223 0.346827 
     length 2.41543 
     axis 0 0 0  XYZ
  end
  begin
     id 2 
     name lfemur
     direction 0.34202 -0.939693 0  
     length 7.2778  
     axis 0 0 20  XYZ
    dof rx ry rz
    limits (-160.0 20.0)
           (-70.0 70.0)
           (-60.0 70.0)
  end
  begin
     id 3 
     name ltibia
     direction 0.34202 -0.939693 0   
     length 7.61811   
     axis 0 0 20   XYZ
    dof rx
    limits (-10.0 170.0)
  end
  begin
     id 4 
     name lfoot
     direction 0.0823924 -0.226371 0.97055   
     length 2.33618   
     axis -90 7.62852e-016 20   XYZ
    dof rx rz
    limits (-45.0 90.0)
           (-70.0 20.0)
  end
  begin
     id 5 
     name ltoes
     direction 1.53554e-011 -4.21934e-011 1   
     length 1.17015   
     axis -90 7.62852e-016 20   XYZ
    dof rx
    limits (-90.0 20.0)
  end
  begin
     id 6 
     name rhipjoint
     direction -0.6077 -0.714582 0.346516   
     length 2.4176  
     axis 0 0 0  XYZ 
  end
  begin
     id 7 
     name rfemur
     direction -0.34202 -0.939693 0   
     length 7.28127   
     axis 0 0 -20   XYZ
    dof rx ry rz
    limits (-160.0 20.0)
           (-70.0 70.0)
           (-70.0 60.0)
  end
  begin
     id 8 
     name rtibia
     direction -0.34202 -0.939693 0   
     length 7.77648   
     axis 0 0 -20   XYZ
    dof rx
    limits (-10.0 170.0)
 end
 begin
     id 9 
     name rfoot
     direction -0.0809463 -0.222398 0.97159   
     length 2.37533  
     axis -90 -7.62852e-016 -20   XYZ
    dof rx rz
    limits (-45.0 90.0)
           (-20.0 70.0)
  end
  begin
     id 10 
     name rtoes
     direction -1.53568e-011 -4.21714e-011 1   
     length 1.18972   
     axis -90 -7.62852e-016 -20   XYZ
    dof rx
    limits (-90.0 20.0)
  end
  begin
     id 11 
     name lowerback
     direction 0.010968 0.991932 -0.126297   
     length 2.21698   
     axis 0 0 0   XYZ
    dof rx ry rz
    limits (-20.0 45.0)
           (-30.0 30.0)
           (-30.0 30.0)
  end
  begin
     id 12 
     name upperback
     direction 0.0167007 0.997503 -0.0686276   
     length 2.22371   
     axis 0 0 0   XYZ
    dof rx ry rz
    limits (-20.0 45.0)
           (-30.0 30.0)
           (-30.0 30.0)
  end
  begin
     id 13 
     name thorax
     direction 0.0111721 0.999885 -0.0102878   
     length 2.25242   
     axis 0 0 0   XYZ
    dof rx ry rz
    limits (-20.0 45.0)
           (-30.0 30.0)
           (-30.0 30.0)
  end
  begin
     id 14 
     name lowerneck
     direction -0.0120265 0.990428 0.137508   
     length 1.57674   
     axis 0 0 0   XYZ
    dof rx ry rz
    limits (-20.0 45.0)
           (-30.0 30.0)
           (-30.0 30.0)
  end
  begin
     id 15 
     name upperneck
     direction 0.0175669 0.998907 0.0433089   
     length 1.5618   
     axis 0 0 0   XYZ
    dof rx ry rz
    limits (-20.0 45.0)
           (-30.0 30.0)
           (-30.0 30.0)
  end
  begin
     id 16
     name head
     direction 0.00754609 0.99997 0.00185367  
     length 1.60579  
     axis 0 0 0   XYZ
    dof rx ry rz
    limits (-20.0 45.0)
           (-30.0 30.0)
           (-30.0 30.0)
  end
  begin
     id 17 
     name lclavicle
     direction 0.885866 0.429166 -0.176231  
     length 3.44967  
     axis 0 0 0   XYZ
    dof ry rz
    limits (-20.0 10.0)
           (0.0 20.0)
  end
  begin
     id 18 
     name lhumerus
     direction 1 -4.48973e-011 -1.90255e-027   
     length 5.20607   
     axis 180 -30 -90   XYZ
    dof rx ry rz
    limits (-60.0 90.0)
           (-90.0 90.0)
           (-90.0 90.0)
  end
  begin
     id 19
     name lradius
     direction 1 -4.48956e-011 9.87925e-027   
     length 3.39961   
     axis 180 -30 -90   XYZ
    dof rx
    limits (-10.0 170.0)
  end
  begin
     id 20
     name lwrist
     direction 1 -4.48985e-011 1.73247e-026   
     length 1.6998   
     axis -9.60847e-015 90 90   XYZ
    dof ry
    limits (-180.0 0.0)
 end
  begin
     id 21 
     name lhand
     direction 1 -4.48798e-011 3.46119e-026   
     length 0.519693   
     axis -2.21073e-014 90 90   XYZ
    dof rx rz
    limits (-90.0 90.0)
           (-45.0 45.0)
  end
  begin
     id 22 
     name lfingers
     direction 1 -4.48938e-011 6.92797e-026   
     length 0.41899   
     axis -4.42155e-014 90 90   XYZ
    dof rx
    limits (0.0 90.0)
  end
  begin
     id 23
     name lthumb
     direction 0.707107 -6.34952e-011 0.707107   
     length 0.601588   
     axis -90 45 6.0103e-014   XYZ
    dof rx rz
    limits (-45.0 45.0)
           (-45.0 45.0)
  end
  begin
     id 24 
     name rclavicle
     direction -0.866736 0.456792 -0.200276   
     length 3.45032  
     axis 0 0 0   XYZ 
    dof ry rz
    limits (-10.0 20.0)
           (-20.0 0.0)
  end
  begin
     id 25 
     name rhumerus
     direction -1 -4.4897e-011 8.65094e-028  
     length 5.32214   
     axis 180 30 90   XYZ
    dof rx ry rz
    limits (-90.0 60.0)
           (-90.0 90.0)
           (-90.0 90.0)
  end
  begin
     id 26 
     name rradius
     direction -1 -4.48987e-011 1.08427e-026   
     length 3.51208   
     axis 180 30 90   XYZ
    dof rx
    limits (-10.0 170.0)
  end
  begin
     id 27 
     name rwrist
     direction -1 -4.48961e-011 1.73222e-026   
     length 1.75604   
     axis -9.60847e-015 -90 -90   XYZ
    dof ry
    limits (-180.0 0.0)
  end
  begin
     id 28
     name rhand
     direction -1 -4.48895e-011 3.46314e-026   
     length 0.586681   
     axis -2.21073e-014 -90 -90   XYZ
    dof rx rz
    limits (-90.0 90.0)
           (-45.0 45.0)
  end
  begin
     id 29
     name rfingers
     direction -1 -4.48968e-011 6.92916e-026   
     length 0.472997   
     axis -4.42155e-014 -90 -90   XYZ
    dof rx
    limits (0.0 90.0)
  end
  begin
     id 30
     name rthumb
     direction -0.707107 -6.34848e-011 0.707107   
     length 0.679133   
     axis -90 -45 -6.0103e-014   XYZ
    dof rx rz
    limits (-45.0 45.0)
           (-45.0 45.0)
  end
:hierarchy
  begin
    root lhipjoint rhipjoint lowerback
    lhipjoint lfemur
    lfemur ltibia
    ltibia lfoot
    lfoot ltoes
    rhipjoint rfemur
    rfemur rtibia
    rtibia rfoot
    rfoot rtoes
    lowerback upperback
    upperback thorax
    thorax lowerneck lclavicle rclavicle
    lowerneck upperneck
    upperneck head
    lclavicle lhumerus
    lhumerus lradius
    lradius lwrist
    lwrist lhand lthumb
    lhand lfingers
    rclavicle rhumerus
    rhumerus rradius
    rradius rwrist
    rwrist rhand rthumb
    rhand rfingers
  end

#!OML:ASF H:\Dans Jumps\Project 1\Capture day 1\Session 1\subject.ASF
:FULLY-SPECIFIED
:DEGREES
16
root 0.367486 17.3075 -14.687 7.29514 0.162924 -2.38112
lowerback 3.18508 -0.378057 0.679058
upperback 4.45193 -0.546388 2.44497
thorax 2.80998 -0.295865 2.13889
lowerneck -13.1117 0.54298 -1.69648
upperneck 33.4073 1.21467 0.133919
head 13.4207 0.332912 0.53376
rclavicle -7.15625e-015 1.07344e-014
rhumerus -13.43 -4.98068 -83.6191
rradius 30.5697
rwrist 23.6865
rhand -19.4041 -26.2006
rfingers 7.12502
rthumb 6.91505 -56.0677
lclavicle -7.15625e-015 1.07344e-014
lhumerus -11.5642 -11.2658 88.3504
lradius 23.7224
lwrist 10.3968
lhand -26.2389 -3.11955
lfingers 7.12502
lthumb 0.315005 26.86
rfemur -22.3667 -3.45969 21.0665
rtibia 31.0288
rfoot -14.8325 -3.27383
rtoes 9.96304
lfemur -21.837 9.00305 -17.2129
ltibia 30.9205
lfoot -14.1602 3.74627
ltoes -0.208608
17
root 0.370139 17.2984 -14.6963 7.31678 0.134893 -2.38591
lowerback 3.28493 -0.376011 0.685086
upperback 4.45886 -0.541665 2.45013
thorax 2.76101 -0.293353 2.14143
lowerneck -13.1377 0.538139 -1.70104
upperneck 33.3383 1.21391 0.117929
head 13.3966 0.330429 0.527865
rclavicle -8.94531e-016 2.0276e-014
rhumerus -13.2433 -4.62419 -83.6315
rradius 30.8119
rwrist 23.4315
rhand -19.4437 -26.1804
rfingers 7.12502
rthumb 6.87685 -56.0487
lclavicle -8.94531e-016 2.0276e-014
lhumerus -11.4235 -11.6158 88.2982
lradius 24.0257
lwrist 10.5353
lhand -26.2412 -3.09759
lfingers 7.12502
lthumb 0.312828 26.8819
rfemur -22.5751 -3.47577 21.0696
rtibia 31.2966
rfoot -14.9025 -3.2559
rtoes 9.85224
lfemur -22.0462 9.09235 -17.2363
ltibia 31.2034
lfoot -14.2565 3.71809
ltoes -0.227409
18
root 0.37279 17.2886 -14.7068 7.3467 0.105323 -2.38946
lowerback 3.39068 -0.375535 0.690957
upperback 4.46362 -0.538804 2.454
thorax 2.70655 -0.291736 2.14276
lowerneck -13.1663 0.536387 -1.70058
upperneck 33.2678 1.21803 0.0967256
head 13.3725 0.329997 0.519782
rclavicle -3.27995e-015 -3.97569e-016
rhumerus -13.0349 -4.27358 -83.6426
rradius 31.0502
rwrist 23.1831
rhand -19.4416 -26.2295
rfingers 7.12502
rthumb 6.87886 -56.0977
lclavicle -3.27995e-015 -3.97569e-016
lhumerus -11.2674 -11.9603 88.2368
lradius 24.3458
lwrist 10.7596
lhand -26.2449 -3.09763
lfingers 7.12502
lthumb 0.309186 26.8819
rfemur -22.8098 -3.49648 21.0733
rtibia 31.5867
rfoot -14.9748 -3.23571
rtoes 9.71869
lfemur -22.2796 9.18248 -17.2633
ltibia 31.5056
lfoot -14.3551 3.69183
ltoes -0.25614
19
root 0.375376 17.2781 -14.7183 7.38467 0.0754404 -2.38729
lowerback 3.50168 -0.376828 0.692479
upperback 4.46771 -0.538152 2.45468
thorax 2.64853 -0.291287 2.14331
lowerneck -13.1989 0.537725 -1.69477
upperneck 33.1937 1.22638 0.0719257
head 13.3478 0.331608 0.509994
rclavicle 2.5842e-015 1.19271e-015
rhumerus -12.8054 -3.936 -83.6529
rradius 31.289
rwrist 22.9501
rhand -19.4264 -26.2881
rfingers 7.12502
rthumb 6.8935 -56.1558
lclavicle 2.5842e-015 1.19271e-015
lhumerus -11.0965 -12.3099 88.1647
lradius 24.6866
lwrist 11.0626
lhand -26.2455 -3.07483
lfingers 7.12502
lthumb 0.308608 26.9047
rfemur -23.0715 -3.5204 21.0725
rtibia 31.9011
rfoot -15.05 -3.21476
rtoes 9.56796
lfemur -22.5366 9.26736 -17.2981
ltibia 31.8272
lfoot -14.454 3.67006
ltoes -0.283797
20
root 0.37784 17.2667 -14.7308 7.42725 0.0452848 -2.37865
lowerback 3.61959 -0.379829 0.68838
upperback 4.47307 -0.539692 2.45288
thorax 2.58809 -0.292058 2.14454
lowerneck -13.2362 0.54119 -1.69353
upperneck 33.115 1.23734 0.0523936
head 13.3221 0.334501 0.503482
rclavicle 1.19271e-015 5.1684e-015
rhumerus -12.5515 -3.61486 -83.6603
rradius 31.5249
rwrist 22.7327
rhand -19.4245 -26.3208
rfingers 7.12502
rthumb 6.89536 -56.1885
lclavicle 1.19271e-015 5.1684e-015
lhumerus -10.9122 -12.6538 88.083
lradius 25.0458
lwrist 11.4125
lhand -26.2537 -3.07115
lfingers 7.12502
lthumb 0.300686 26.9084
rfemur -23.3566 -3.5459 21.0666
rtibia 32.2405
rfoot -15.1288 -3.19835
rtoes 9.3915
lfemur -22.8131 9.34648 -17.3409
ltibia 32.1681
lfoot -14.5534 3.65575
ltoes -0.317335
21
root 0.380362 17.2546 -14.7443 7.4768 0.0150893 -2.36008
lowerback 3.74627 -0.384117 0.678595
upperback 4.47575 -0.542712 2.44638
thorax 2.52004 -0.293622 2.1442
lowerneck -13.2751 0.546793 -1.68767
upperneck 33.033 1.25162 0.0283332
head 13.2954 0.33884 0.494882
rclavicle -7.05686e-015 1.47101e-014
rhumerus -12.2839 -3.31528 -83.6647
rradius 31.7631
rwrist 22.5349
rhand -19.4068 -26.3602
rfingers 7.12502
rthumb 6.91248 -56.2273
lclavicle -7.05686e-015 1.47101e-014
lhumerus -10.7259 -12.9899 87.9918
lradius 25.4306
lwrist 11.7778
lhand -26.2838 -3.0837
lfingers 7.12502
lthumb 0.271642 26.8959
rfemur -23.6689 -3.57398 21.051
rtibia 32.6056
rfoot -15.2104 -3.18195
rtoes 9.20486
lfemur -23.1121 9.41663 -17.3966
ltibia 32.5284
lfoot -14.6521 3.65199
ltoes -0.353456
22
root 0.382973 17.2415 -14.7588 7.52717 -0.0160888 -2.33611
lowerback 3.88578 -0.38974 0.666116
upperback 4.47896 -0.547292 2.43784
thorax 2.44544 -0.295993 2.14341
lowerneck -13.3109 0.55513 -1.68392
upperneck 32.9404 1.2701 0.00469704
head 13.2634 0.344918 0.487384
rclavicle 8.94531e-015 -1.94809e-014
rhumerus -12.0038 -3.03276 -83.6641
rradius 32.0091
rwrist 22.3483
rhand -19.4051 -26.3874
rfingers 7.12502
rthumb 6.91409 -56.2545
lclavicle 8.94531e-015 -1.94809e-014
lhumerus -10.5335 -13.3137 87.8922
lradius 25.8323
lwrist 12.1441
lhand -26.3163 -3.13099
lfingers 7.12502
lthumb 0.240222 26.8486
rfemur -24.0006 -3.60088 21.0296
rtibia 32.997
rfoot -15.2976 -3.16821
rtoes 9.01241
lfemur -23.4269 9.4821 -17.4597
ltibia 32.9099
lfoot -14.7544 3.65726
ltoes -0.391623
